<svg xmlns="http://www.w3.org/2000/svg" viewBox="0 0 1040 640" font-family="Inter, Segoe UI, Arial, sans-serif">
  <defs>
    <marker id="arrow" viewBox="0 0 10 10" refX="9" refY="5" markerWidth="7" markerHeight="7" orient="auto-start-reverse">
      <path d="M0,0 L10,5 L0,10 z" fill="#9F67FF" />
    </marker>
    <linearGradient id="agentG" x1="0" y1="0" x2="1" y2="1">
      <stop offset="0" stop-color="#7C3AED" />
      <stop offset="1" stop-color="#4C1D95" />
    </linearGradient>
    <style>
      .card { fill: #12121A; stroke: rgba(255,255,255,0.14); stroke-width: 1.2; rx: 12; }
      .lane { fill: #0E0E16; stroke: rgba(255,255,255,0.06); stroke-width: 1; rx: 16; }
      .t   { fill: #E7E7EE; font-size: 14px; font-weight: 600; }
      .tt  { fill: #E7E7EE; font-size: 13px; font-weight: 600; }
      .sub { fill: #8A8A99; font-size: 11.5px; font-weight: 500; }
      .lbl { fill: #9F67FF; font-size: 12px; font-weight: 700; letter-spacing: 1.5px; }
      .gold{ fill: #F59E0B; }
      .flow{ stroke: #9F67FF; stroke-width: 1.6; fill: none; }
    </style>
  </defs>

  <rect width="1040" height="640" fill="#0A0A0F" />

  <!-- Title -->
  <text x="40" y="44" fill="#FFFFFF" font-size="26" font-weight="800">Filmsmith <tspan fill="#9F67FF">— Architecture</tspan></text>
  <text x="40" y="66" class="sub">AI film-recommendation engine · Microsoft Agents League · Creative Apps track</text>

  <!-- ───────────── BUILD / DEV LANE ───────────── -->
  <rect x="24" y="86" width="992" height="116" class="lane" rx="16" />
  <text x="44" y="110" class="lbl">BUILD / DEV WORKFLOW</text>

  <!-- dev boxes -->
  <g>
    <rect x="44"  y="124" width="150" height="62" class="card" rx="12" />
    <text x="119" y="160" text-anchor="middle" class="tt">Developer</text>

    <rect x="236" y="124" width="190" height="62" class="card" rx="12" stroke="#22C55E" />
    <text x="331" y="152" text-anchor="middle" class="tt">GitHub Copilot</text>
    <text x="331" y="170" text-anchor="middle" class="sub">Chat: agent loop, tests, refactors</text>

    <rect x="468" y="124" width="150" height="62" class="card" rx="12" />
    <text x="543" y="160" text-anchor="middle" class="tt">Git commits</text>

    <rect x="660" y="124" width="160" height="62" class="card" rx="12" />
    <text x="740" y="152" text-anchor="middle" class="tt">GitHub repo</text>
    <text x="740" y="170" text-anchor="middle" class="sub">B-star51/filmsmith</text>

    <rect x="862" y="124" width="154" height="62" class="card" rx="12" />
    <text x="939" y="152" text-anchor="middle" class="tt">Vite build</text>
    <text x="939" y="170" text-anchor="middle" class="sub">→ installable PWA</text>

    <line x1="194" y1="155" x2="236" y2="155" class="flow" marker-end="url(#arrow)" />
    <line x1="426" y1="155" x2="468" y2="155" class="flow" marker-end="url(#arrow)" />
    <line x1="618" y1="155" x2="660" y2="155" class="flow" marker-end="url(#arrow)" />
    <line x1="820" y1="155" x2="862" y2="155" class="flow" marker-end="url(#arrow)" />
  </g>

  <!-- ───────────── RUNTIME LANE ───────────── -->
  <rect x="24" y="222" width="992" height="386" class="lane" rx="16" />
  <text x="44" y="246" class="lbl">RUNTIME · IN THE BROWSER</text>

  <!-- Row A: user → UI → agent → model -->
  <rect x="44"  y="262" width="150" height="64" class="card" rx="12" />
  <text x="119" y="290" text-anchor="middle" class="tt">User</text>
  <text x="119" y="308" text-anchor="middle" class="sub">web / installed PWA</text>

  <rect x="236" y="262" width="180" height="64" class="card" rx="12" />
  <text x="326" y="290" text-anchor="middle" class="tt">React + Tailwind UI</text>
  <text x="326" y="308" text-anchor="middle" class="sub">Netflix-style feed</text>

  <rect x="458" y="258" width="214" height="72" rx="12" fill="url(#agentG)" stroke="#9F67FF" stroke-width="1.5" />
  <text x="565" y="288" text-anchor="middle" class="t" fill="#FFFFFF">Filmsmith Agent</text>
  <text x="565" y="307" text-anchor="middle" fill="#E9DEFF" font-size="11.5">multi-step tool-use loop</text>

  <rect x="714" y="262" width="302" height="64" class="card" rx="12" />
  <text x="865" y="288" text-anchor="middle" class="tt">Claude · claude-sonnet-4-6</text>
  <text x="865" y="306" text-anchor="middle" class="sub">or GitHub Models  (live providers)</text>

  <line x1="194" y1="294" x2="236" y2="294" class="flow" marker-end="url(#arrow)" />
  <line x1="416" y1="294" x2="458" y2="294" class="flow" marker-end="url(#arrow)" />
  <line x1="672" y1="294" x2="714" y2="294" class="flow" marker-end="url(#arrow)" marker-start="url(#arrow)" />

  <!-- Row B: tools + data + fallback -->
  <rect x="44"  y="372" width="214" height="64" class="card" rx="12" />
  <text x="151" y="398" text-anchor="middle" class="tt">Local reasoning engine</text>
  <text x="151" y="416" text-anchor="middle" class="sub">offline-safe fallback</text>

  <rect x="300" y="372" width="232" height="64" class="card" rx="12" stroke="#9F67FF" />
  <text x="416" y="398" text-anchor="middle" class="tt">Agent tools</text>
  <text x="416" y="416" text-anchor="middle" class="sub">filter · history · score</text>

  <rect x="574" y="372" width="200" height="64" class="card" rx="12" />
  <text x="674" y="398" text-anchor="middle" class="tt">Local dataset</text>
  <text x="674" y="416" text-anchor="middle" class="sub">77 films, 7 platforms</text>

  <!-- agent down to tools, tools to dataset, agent to fallback -->
  <path d="M520,330 C500,352 440,352 416,372" class="flow" marker-end="url(#arrow)" />
  <line x1="532" y1="404" x2="574" y2="404" class="flow" marker-end="url(#arrow)" />
  <path d="M468,330 C360,355 230,352 200,372" class="flow" marker-end="url(#arrow)" stroke-dasharray="5 4" />
  <text x="250" y="352" class="sub" fill="#F59E0B">fallback if no key / error</text>

  <!-- Row C: state + extras -->
  <rect x="44"  y="486" width="208" height="64" class="card" rx="12" />
  <text x="148" y="512" text-anchor="middle" class="tt">Filmsmith Score</text>
  <text x="148" y="530" text-anchor="middle" class="sub">explainable, local JS</text>

  <rect x="268" y="486" width="180" height="64" class="card" rx="12" />
  <text x="358" y="512" text-anchor="middle" class="tt">localStorage</text>
  <text x="358" y="530" text-anchor="middle" class="sub">taste profile + settings</text>

  <rect x="464" y="486" width="266" height="64" class="card" rx="12" />
  <text x="597" y="512" text-anchor="middle" class="tt">Live Critic Feed</text>
  <text x="597" y="530" text-anchor="middle" class="sub">Claude web search · cached 6h · LIVE</text>

  <rect x="746" y="486" width="270" height="64" class="card" rx="12" />
  <text x="881" y="512" text-anchor="middle" class="tt">PWA service worker</text>
  <text x="881" y="530" text-anchor="middle" class="sub">installable · works offline</text>

  <line x1="326" y1="326" x2="240" y2="486" class="flow" stroke-dasharray="5 4" opacity="0.5" />
  <line x1="326" y1="326" x2="358" y2="486" class="flow" stroke-dasharray="5 4" opacity="0.5" />

  <!-- legend -->
  <text x="44" y="592" class="sub"><tspan fill="#22C55E" font-weight="700">GitHub Copilot</tspan> = build-time AI pair-programmer   ·   <tspan fill="#9F67FF" font-weight="700">Claude</tspan> = runtime recommendation agent   ·   everything works offline via the local engine</text>
</svg>
